<svg width="44" height="44" viewBox="0 0 44 44" fill="none" xmlns="http://www.w3.org/2000/svg">
<path d="M2.65668 6.6H38.1563C41.3717 6.6 43.6934 9.56333 42.8114 12.5453L38.952 25.612C38.357 27.6187 36.4576 29 34.2969 29H12.9281C10.7651 29 8.8634 27.6163 8.27073 25.612L2.65668 6.6ZM2.65668 6.6L1 1M32.5003 43C33.4285 43 34.3188 42.6312 34.9752 41.9749C35.6315 41.3185 36.0003 40.4283 36.0003 39.5C36.0003 38.5717 35.6315 37.6815 34.9752 37.0251C34.3188 36.3687 33.4285 36 32.5003 36C31.572 36 30.6818 36.3687 30.0254 37.0251C29.369 37.6815 29.0002 38.5717 29.0002 39.5C29.0002 40.4283 29.369 41.3185 30.0254 41.9749C30.6818 42.6312 31.572 43 32.5003 43ZM13.8334 43C14.7617 43 15.652 42.6312 16.3083 41.9749C16.9647 41.3185 17.3335 40.4283 17.3335 39.5C17.3335 38.5717 16.9647 37.6815 16.3083 37.0251C15.652 36.3687 14.7617 36 13.8334 36C12.9052 36 12.0149 36.3687 11.3585 37.0251C10.7022 37.6815 10.3334 38.5717 10.3334 39.5C10.3334 40.4283 10.7022 41.3185 11.3585 41.9749C12.0149 42.6312 12.9052 43 13.8334 43Z" stroke="black" stroke-width="1.875" stroke-linecap="round" stroke-linejoin="round"/>
</svg>
