<svg width="44" height="44" viewBox="0 0 44 44" fill="none" xmlns="http://www.w3.org/2000/svg">
<path d="M16.5135 20.075C18.3316 20.075 19.8054 18.6143 19.8054 16.8125C19.8054 15.0107 18.3316 13.55 16.5135 13.55C14.6954 13.55 13.2216 15.0107 13.2216 16.8125C13.2216 18.6143 14.6954 20.075 16.5135 20.075Z" fill="black"/>
<path d="M27.4865 20.075C29.3045 20.075 30.7784 18.6143 30.7784 16.8125C30.7784 15.0107 29.3045 13.55 27.4865 13.55C25.6684 13.55 24.1946 15.0107 24.1946 16.8125C24.1946 18.6143 25.6684 20.075 27.4865 20.075Z" fill="black"/>
<path d="M22 0.5C9.899 0.5 0.0540466 8.30608 0.0540466 17.9C0.0540466 24.2249 4.21719 29.8951 11.027 32.9815V44L22.7462 35.2913C34.5026 34.9781 43.9459 27.296 43.9459 17.9C43.9459 8.30608 34.101 0.5 22 0.5ZM22 30.95H21.2692L15.4162 35.3V30.043L14.0095 29.5058C8.1104 27.2547 4.44324 22.8068 4.44324 17.9C4.44324 10.7029 12.3196 4.85 22 4.85C31.6804 4.85 39.5568 10.7029 39.5568 17.9C39.5568 25.0971 31.6804 30.95 22 30.95Z" fill="black"/>
</svg>
